<?xml version="1.0" standalone="no"?>
<!DOCTYPE svg PUBLIC "-//W3C//DTD SVG 20010904//EN"
 "http://www.w3.org/TR/2001/REC-SVG-20010904/DTD/svg10.dtd">
<svg version="1.0" xmlns="http://www.w3.org/2000/svg"
 width="1080.000000pt" height="1080.000000pt" viewBox="0 0 1080.000000 1080.000000"
 preserveAspectRatio="xMidYMid meet">
<metadata>
Created by potrace 1.16, written by Peter Selinger 2001-2019
</metadata>
<g transform="translate(0.000000,1080.000000) scale(0.100000,-0.100000)"
fill="#000000" stroke="none">
<path d="M3965 6249 c-779 -1342 -1419 -2449 -1422 -2460 -5 -19 2 -19 498
-17 l503 3 148 255 c81 140 152 255 157 255 6 0 46 -52 90 -115 l79 -115 -246
-364 c-135 -201 -248 -375 -250 -388 l-4 -23 1891 0 c1511 0 1891 3 1885 13
-4 6 -119 179 -256 384 -136 205 -248 375 -248 378 0 13 154 235 162 233 4 -2
180 -300 391 -663 l384 -660 -2436 -7 c-1340 -4 -2618 -9 -2840 -10 l-405 -3
-238 -410 c-131 -225 -238 -416 -238 -422 0 -10 773 -13 3831 -13 3772 0 3831
0 3826 19 -2 11 -861 1493 -1907 3295 -1383 2382 -1907 3276 -1920 3276 -13 0
-405 -668 -1435 -2441z m2063 -359 l618 -1065 -623 -3 c-343 -1 -903 -1 -1246
0 l-624 3 621 1068 c341 587 623 1066 628 1065 4 -2 286 -482 626 -1068z
m-1438 -1232 c9 -23 190 -1170 190 -1208 0 -13 -10 -24 -26 -30 -36 -14 -107
-12 -127 3 -19 14 -32 75 -42 197 -10 129 -2 120 -110 120 l-93 0 -6 -37 c-3
-21 -10 -76 -16 -123 -6 -47 -15 -102 -21 -122 -9 -34 -13 -37 -55 -44 -25 -3
-60 -2 -77 3 -44 12 -44 35 -7 278 17 110 34 218 36 240 42 337 98 723 106
733 7 8 45 12 124 12 109 0 115 -1 124 -22z m665 3 c22 -10 55 -34 72 -54 50
-57 64 -120 64 -282 -1 -189 -13 -230 -93 -310 l-59 -59 92 -230 c50 -127 94
-247 96 -267 6 -43 -6 -49 -104 -49 -77 0 -67 -17 -168 277 -41 120 -79 224
-83 232 -22 40 -27 -4 -27 -247 l0 -257 -82 -3 c-76 -3 -82 -1 -88 19 -4 12
-7 292 -7 621 0 450 4 603 12 614 10 11 45 14 174 14 134 0 168 -3 201 -19z
m688 7 c15 -8 17 -20 15 -76 l-3 -67 -127 -3 -128 -3 1 -192 c0 -106 3 -186 6
-179 6 16 174 17 191 0 7 -7 12 -39 12 -75 0 -78 -8 -83 -125 -83 l-86 0 2
-199 c1 -166 4 -201 16 -205 8 -3 68 -6 133 -6 133 0 130 2 130 -78 0 -78 4
-76 -207 -83 -103 -3 -199 -2 -213 1 -24 6 -25 10 -31 106 -4 54 -8 281 -9
504 -1 223 -3 452 -4 510 -2 58 1 113 5 122 8 15 31 17 207 16 108 0 205 -4
215 -10z m500 -3 c18 -18 30 -82 67 -373 15 -125 47 -365 70 -534 23 -169 40
-315 36 -323 -7 -20 -138 -21 -155 -1 -12 14 -22 66 -42 219 l-11 87 -88 0
c-103 0 -91 18 -116 -174 -10 -72 -23 -134 -28 -138 -6 -4 -39 -8 -72 -8 -71
0 -90 14 -80 57 4 16 7 44 6 63 0 19 9 87 21 150 11 63 23 138 25 165 5 67 35
247 42 260 4 6 5 17 4 25 -4 25 68 501 79 521 9 17 22 19 119 19 82 0 112 -4
123 -15z"/>
<path d="M4461 4430 c-1 -8 -15 -123 -31 -255 -16 -132 -30 -248 -30 -257 0
-16 10 -18 70 -18 66 0 70 1 70 23 0 41 -61 482 -70 502 -6 13 -9 15 -9 5z"/>
<path d="M5038 4503 c-2 -5 -2 -95 0 -202 l3 -193 64 4 c50 3 70 9 90 28 24
23 25 28 25 145 0 188 -20 225 -121 225 -32 0 -59 -3 -61 -7z"/>
<path d="M6321 4407 c-1 -15 -9 -63 -18 -105 -9 -42 -16 -88 -15 -102 1 -14
-5 -71 -13 -128 -8 -56 -15 -118 -15 -136 l0 -34 63 5 c34 3 64 7 66 9 2 2 -3
59 -12 126 -9 68 -21 170 -27 228 -6 58 -14 119 -19 135 l-9 30 -1 -28z"/>
</g>
</svg>
